<svg width="18" height="10" viewBox="0 0 18 10" fill="none" xmlns="http://www.w3.org/2000/svg">
<path d="M9.99267 0.418489L17.6016 7.77609C17.7279 7.89694 17.8281 8.04071 17.8964 8.19912C17.9648 8.35753 18 8.52743 18 8.69904C18 8.87065 17.9648 9.04055 17.8964 9.19896C17.8281 9.35737 17.7279 9.50114 17.6016 9.62199C17.3493 9.8641 17.008 10 16.6522 10C16.2964 10 15.9551 9.8641 15.7028 9.62199L8.96916 3.18734L2.30289 9.62199C2.05057 9.8641 1.70924 10 1.35345 10C0.997669 10 0.65634 9.8641 0.404015 9.62199C0.276766 9.5016 0.175531 9.35803 0.10618 9.1996C0.036829 9.04117 0.000740101 8.87103 5.68668e-08 8.69904C0.000740116 8.52705 0.0368291 8.35691 0.10618 8.19848C0.175531 8.04005 0.276766 7.89648 0.404015 7.77609L8.01299 0.418489C8.1391 0.28654 8.29216 0.181235 8.46252 0.109209C8.63287 0.0371834 8.81684 -4.01408e-07 9.00283 -3.93279e-07C9.18881 -3.85149e-07 9.37278 0.0371834 9.54314 0.109209C9.7135 0.181235 9.86656 0.28654 9.99267 0.418489Z" fill="#09035D"/>
</svg>
