<svg width="20" height="20" viewBox="0 0 20 20" fill="none" xmlns="http://www.w3.org/2000/svg">
<path fill-rule="evenodd" clip-rule="evenodd" d="M19.1004 0.899587C19.4665 1.2657 19.4665 1.8593 19.1004 2.22541L2.22541 19.1004C1.8593 19.4665 1.2657 19.4665 0.899587 19.1004C0.533471 18.7343 0.533471 18.1407 0.899587 17.7746L17.7746 0.899587C18.1407 0.533471 18.7343 0.533471 19.1004 0.899587Z" fill="white"/>
<path fill-rule="evenodd" clip-rule="evenodd" d="M0.899587 0.899587C1.2657 0.533471 1.8593 0.533471 2.22541 0.899587L19.1004 17.7746C19.4665 18.1407 19.4665 18.7343 19.1004 19.1004C18.7343 19.4665 18.1407 19.4665 17.7746 19.1004L0.899587 2.22541C0.533471 1.8593 0.533471 1.2657 0.899587 0.899587Z" fill="white"/>
</svg>
