<svg width="1000" height="72" viewBox="0 0 1000 72" fill="none" xmlns="http://www.w3.org/2000/svg">
<path d="M-305.582 35.7099C-185.115 4.56016 -107.27 -1.47729 -41.25 4.53992C-17.1257 6.73866 5.41882 10.5454 27.8946 15.3298C28.039 17.5153 29.8593 19.2433 32.0836 19.2433C33.6784 19.2433 35.0655 18.355 35.7762 17.0467C55.1358 21.3562 74.5755 26.3362 95.0603 31.5839C113.151 36.2183 132.057 41.0615 152.442 45.8362L152.477 45.8443L152.513 45.8495C155.218 46.243 157.907 46.6209 160.579 46.9835C160.924 48.9531 162.644 50.4502 164.715 50.4502C166.401 50.4502 167.856 49.4564 168.523 48.0228C214.357 53.7946 255.332 55.0543 293.387 53.5606C293.964 55.1883 295.519 56.3543 297.346 56.3543C299.304 56.3543 300.949 55.0149 301.413 53.2032C345.768 50.9955 386.262 45.1394 426.067 38.5099C426.679 40.0688 428.199 41.1725 429.977 41.1725C432.238 41.1725 434.082 39.3862 434.172 37.1489C441.831 35.8531 449.472 34.5357 457.118 33.2175C470.724 30.8721 484.345 28.5238 498.111 26.2888C517.913 23.0738 538.019 20.0917 558.812 17.6875C559.485 19.1059 560.932 20.0867 562.607 20.0867C564.612 20.0867 566.288 18.6835 566.706 16.8069C604.977 12.6953 645.695 10.6531 691.186 12.7763C691.67 14.5586 693.301 15.8695 695.238 15.8695C697.023 15.8695 698.548 14.7571 699.155 13.1884C736.93 15.3324 778.008 20.3606 823.671 29.43C823.694 31.7268 825.565 33.5816 827.87 33.5816C829.593 33.5816 831.073 32.5444 831.72 31.0609C851.686 35.1856 872.522 40.0776 894.332 45.8302C915.353 51.3744 935.94 56.038 956.302 59.7941C956.325 62.0906 958.196 63.9451 960.5 63.9451C962.292 63.9451 963.821 62.8242 964.424 61.2462C1073.53 80.1272 1176.94 72.71 1307 34.8598L1306.53 33.2396C1176.7 71.0243 1073.54 78.4195 964.695 59.5815C964.606 57.3439 962.762 55.5572 960.5 55.5572C958.754 55.5572 957.256 56.6227 956.624 58.1385C936.297 54.3893 915.744 49.7337 894.759 44.1986C872.922 38.4391 852.06 33.5409 832.068 29.4105C832.068 29.4029 832.068 29.3953 832.068 29.3876C832.068 27.0714 830.188 25.1937 827.87 25.1937C826.123 25.1937 824.626 26.2589 823.993 27.7744C778.323 18.7041 737.229 13.6686 699.434 11.5147C699.349 9.273 697.503 7.4816 695.238 7.4816C693.121 7.4816 691.37 9.04721 691.082 11.0827C645.649 8.97277 604.968 11.0083 566.732 15.1077C566.365 13.1667 564.658 11.6988 562.607 11.6988C560.289 11.6988 558.409 13.5765 558.409 15.8927C558.409 15.9407 558.41 15.9884 558.411 16.036C537.665 18.4392 517.602 21.4156 497.843 24.6236C484.061 26.8612 470.43 29.2109 456.82 31.5568L456.818 31.5571C449.18 32.8738 441.548 34.1893 433.9 35.4831C433.297 33.9053 431.768 32.7845 429.977 32.7845C427.702 32.7845 425.85 34.5914 425.78 36.8467C386.056 43.4623 345.686 49.3013 301.494 51.511C301.182 49.503 299.443 47.9663 297.346 47.9663C295.12 47.9663 293.3 49.6956 293.156 51.8823C255.277 53.3612 214.507 52.1037 168.911 46.3716C168.912 46.3333 168.913 46.2948 168.913 46.2563C168.913 43.94 167.033 42.0623 164.715 42.0623C162.729 42.0623 161.066 43.4386 160.629 45.2881C158.031 44.935 155.418 44.5675 152.789 44.1852C132.5 39.4327 113.651 34.6041 95.5936 29.9782L95.5909 29.9776C75.1138 24.7318 55.6541 19.7467 36.265 15.4286C36.2762 15.3036 36.282 15.1771 36.282 15.0493C36.282 12.733 34.4023 10.8553 32.0836 10.8553C30.2542 10.8553 28.6981 12.0242 28.1228 13.6552C5.62546 8.87046 -16.9552 5.0604 -41.0983 2.85995C-107.366 -3.17984 -185.412 2.89505 -306 34.0763L-305.582 35.7099Z" fill="#0F0F10" fill-opacity="0.4"/>
</svg>
