<svg width="60" height="60" viewBox="0 0 60 60" fill="none" xmlns="http://www.w3.org/2000/svg">
<path d="M10.4546 2.63633C8.45463 3.54542 5.45463 5.72724 3.81827 7.63633C1.27282 10.5454 0.90918 11.6363 0.90918 16.1818C0.90918 24.0909 4.63645 27.6363 10.3637 25.4545C12.5455 24.6363 12.7274 24.8181 12.7274 27.0909C12.8183 28.4545 13.3637 31 14.0001 32.8181C14.9092 35.5454 14.9092 36.3636 13.9092 37.8181C12.091 40.2727 12.4546 45.7272 14.5455 48.4545C15.5455 49.7272 16.3637 52.0909 16.3637 53.8181C16.3637 58.7272 17.3637 59.0909 30.0001 59.0909C42.6365 59.0909 43.6365 58.7272 43.6365 53.8181C43.6365 52.0909 44.4546 49.7272 45.4546 48.4545C47.5455 45.7272 47.9092 40.2727 46.091 37.8181C45.091 36.3636 45.091 35.5454 46.0001 32.8181C46.6365 31 47.1819 28.4545 47.2728 27.0909C47.2728 24.8181 47.4546 24.6363 49.6365 25.4545C55.4546 27.7272 59.091 24.0909 59.091 16C59.091 10.9091 58.9092 10.4545 55.1819 6.81815C51.091 2.63633 45.2728 0.272694 41.5455 1.27269C40.2728 1.54542 38.091 2.99997 36.7274 4.45451C34.7274 6.63633 33.5455 7.09088 29.8183 7.09088C26.7274 7.09088 25.091 6.63633 24.2728 5.54542C22.4546 2.99997 18.8183 0.909058 16.3637 0.909058C15.091 0.909058 12.4546 1.72724 10.4546 2.63633ZM22.4546 6.90906C24.6365 9.27269 26.3637 10.7272 26.3637 10.0909C26.3637 9.54542 27.9092 9.09088 30.0001 9.09088C32.091 9.09088 33.6365 9.54542 33.6365 10.0909C33.6365 10.7272 35.3637 9.27269 37.5455 6.90906C42.0001 2.18178 43.7274 1.81815 49.0001 4.54542C54.5455 7.3636 57.2728 11.1818 57.2728 16.2727C57.2728 21.4545 55.7274 23.8181 52.2728 23.8181C48.5455 23.8181 47.2728 21.5454 47.2728 14.3636C47.2728 9.54542 46.9092 7.99997 45.8183 7.54542C45.091 7.27269 44.0001 7.45451 43.3637 8.09088C42.6365 8.81815 42.7274 9.09088 43.9092 9.09088C45.7274 9.09088 46.091 12.3636 44.3637 13C43.4546 13.3636 43.4546 13.6363 44.3637 14.6363C45.7274 16.0909 45.8183 26.3636 44.5455 31.0909C43.8183 33.7272 43.2728 34.2727 41.8183 33.9091C39.3637 33.2727 39.5455 33.9091 42.7274 37.0909C47.8183 42.1818 44.9092 50 38.0001 50C31.8183 50 28.7274 44.9091 32.7274 41.3636C33.7274 40.4545 34.5455 38.9091 34.5455 38C34.5455 35.7272 30.7274 34.3636 27.7274 35.4545C25.0001 36.5454 24.8183 39.0909 27.2728 41.3636C31.2728 44.9091 28.1819 50 22.0001 50C15.091 50 12.1819 42.1818 17.2728 37.0909C20.4546 33.9091 20.6365 33.2727 18.1819 33.9091C16.7274 34.2727 16.1819 33.7272 15.4546 31.0909C14.1819 26.3636 14.2728 16.0909 15.7274 14.6363C16.6365 13.6363 16.6365 13.3636 15.7274 13C13.9092 12.3636 14.2728 9.09088 16.091 9.09088C17.2728 9.09088 17.3637 8.81815 16.6365 8.09088C16.0001 7.45451 14.9092 7.27269 14.1819 7.54542C13.091 7.99997 12.7274 9.54542 12.7274 14.3636C12.7274 21.5454 11.4546 23.8181 7.72736 23.8181C4.27282 23.8181 2.72736 21.4545 2.72736 16.2727C2.72736 11.2727 5.36372 7.45451 10.8183 4.54542C16.0001 1.81815 18.0001 2.18178 22.4546 6.90906ZM32.7274 38.0909C32.7274 38.5454 32.091 39.3636 31.3637 40C30.2728 40.9091 29.7274 40.9091 28.6365 40C26.5455 38.2727 27.0001 37.2727 30.0001 37.2727C31.5455 37.2727 32.7274 37.6363 32.7274 38.0909ZM30.091 52.7272C30.5455 52.7272 30.9092 52.0909 30.9092 51.3636C30.9092 50.5454 31.4546 50.2727 32.3637 50.6363C34.1819 51.2727 33.7274 55.3636 31.6365 56.7272C29.5455 58 26.9092 56.4545 26.5455 53.6363C26.1819 51.2727 28.4546 49.1818 28.9092 51.3636C29.091 52.0909 29.6365 52.7272 30.091 52.7272ZM24.6365 54.9091C25.2728 57.2727 25.1819 57.3636 22.0001 57.0909C19.091 56.8181 18.6365 56.4545 18.3637 54.2727C18.091 51.8181 18.2728 51.7272 21.0001 52C23.3637 52.2727 24.091 52.9091 24.6365 54.9091ZM41.6365 54.2727C41.3637 56.4545 40.9092 56.8181 38.0001 57.0909C35.1819 57.3636 34.6365 57.0909 35.0001 56C35.2728 55.1818 35.6365 54 35.8183 53.3636C36.0001 52.7272 37.4546 52.0909 39.091 52C41.7274 51.8181 41.9092 52 41.6365 54.2727Z" fill="#9FDB3D"/>
<path d="M17.8183 17.7272C16.8183 18.4545 16.2728 19.2727 16.5455 19.5454C17.1819 20.2727 21.8183 18.0909 21.8183 17.0909C21.8183 15.9091 19.7274 16.2727 17.8183 17.7272Z" fill="#9FDB3D"/>
<path d="M38.1819 17.0909C38.1819 18.0909 42.8183 20.2727 43.4546 19.5454C44.091 18.9091 40.8183 16.4545 39.3637 16.3636C38.7274 16.3636 38.1819 16.7272 38.1819 17.0909Z" fill="#9FDB3D"/>
<path d="M19.6365 21.7272C17.7274 23.8181 18.3637 26.9091 20.8183 27.7272C24.9092 29 27.7274 24.8181 24.9092 21.7272C24.091 20.8181 22.9092 20 22.2728 20C21.6365 20 20.4546 20.8181 19.6365 21.7272ZM23.9092 23.3636C24.2728 23.6363 24.091 24.4545 23.5455 25.1818C22.7274 26.0909 22.1819 26.0909 21.2728 25.3636C20.5455 24.8181 20.2728 24 20.5455 23.5454C21.091 22.5454 23.091 22.4545 23.9092 23.3636Z" fill="#9FDB3D"/>
<path d="M35.091 21.7272C33.1819 23.8181 33.8183 26.9091 36.2728 27.7272C40.3637 29 43.1819 24.8181 40.3637 21.7272C39.5455 20.8181 38.3637 20 37.7274 20C37.091 20 35.9092 20.8181 35.091 21.7272ZM39.3637 23.3636C39.7274 23.6363 39.5455 24.4545 39.0001 25.1818C38.1819 26.0909 37.6365 26.0909 36.7274 25.3636C36.0001 24.8181 35.7274 24 36.0001 23.5454C36.5455 22.5454 38.5455 22.4545 39.3637 23.3636Z" fill="#9FDB3D"/>
<path d="M24.5455 43.7272C24.5455 44.1818 25.0001 44.3636 25.4546 44.0909C26.0001 43.8181 26.3637 43.3636 26.3637 43.0909C26.3637 42.9091 26.0001 42.7272 25.4546 42.7272C25.0001 42.7272 24.5455 43.1818 24.5455 43.7272Z" fill="#9FDB3D"/>
<path d="M34.091 43.6363C34.3637 44.0909 34.8183 44.5454 35.091 44.5454C35.2728 44.5454 35.4546 44.0909 35.4546 43.6363C35.4546 43.0909 35.0001 42.7272 34.4546 42.7272C34.0001 42.7272 33.8183 43.0909 34.091 43.6363Z" fill="#9FDB3D"/>
<path d="M18.1819 45.4545C18.1819 45.9091 18.6365 46.3636 19.091 46.3636C19.6365 46.3636 20.0001 45.9091 20.0001 45.4545C20.0001 44.9091 19.6365 44.5454 19.091 44.5454C18.6365 44.5454 18.1819 44.9091 18.1819 45.4545Z" fill="#9FDB3D"/>
<path d="M40.0001 45.4545C40.0001 45.9091 40.4546 46.3636 40.9092 46.3636C41.4546 46.3636 41.8183 45.9091 41.8183 45.4545C41.8183 44.9091 41.4546 44.5454 40.9092 44.5454C40.4546 44.5454 40.0001 44.9091 40.0001 45.4545Z" fill="#9FDB3D"/>
</svg>
