<svg width="56" height="56" viewBox="0 0 56 56" fill="none" xmlns="http://www.w3.org/2000/svg">
<path d="M35.4081 5.2127C33.074 7.46405 33.6792 12.9192 36.5318 16.1231L39.0388 18.894L44.4848 16.0365C47.5104 14.3913 50.536 12.7461 51.1411 12.2265C52.4378 11.1874 52.5242 6.25179 51.1411 4.86634C49.4986 3.22113 37.0505 3.4809 35.4081 5.2127ZM50.2766 8.24336C50.536 10.2349 49.8444 10.9277 45.0899 13.612C40.0761 16.4694 39.5574 16.556 38.1743 15.3438C37.0505 14.3913 36.6183 12.6595 36.6183 9.7154V5.47247L43.361 5.73225C49.8444 5.99202 50.0173 6.07861 50.2766 8.24336Z" fill="#9FDB3D"/>
<path fill-rule="evenodd" clip-rule="evenodd" d="M17.5139 2.35522C12.5001 5.03952 9.82026 9.6288 9.82026 15.6901C9.82026 19.7599 9.64737 20.2794 8.00491 20.2794C5.41155 20.2794 1.43506 24.6955 0.743502 28.2457C-0.0345056 32.1423 1.95374 36.212 5.75733 38.4634C8.26424 40.022 10.2525 40.1952 28.5789 40.1952C47.7697 40.1952 48.7206 40.2818 49.5851 41.927C50.2766 43.1392 50.2766 44.1783 49.5851 45.3906C48.7206 46.9492 47.7697 47.1224 37.915 47.1224C31.6909 47.1224 27.0229 46.776 26.6771 46.2565C25.8991 45.0442 17.9461 45.1308 15.9579 46.4297C14.6612 47.209 13.8832 47.0358 11.9814 45.5638C8.9558 43.1392 3.76909 43.0526 1.78085 45.2174C-0.0345056 47.209 -0.120951 53.4435 1.60795 54.9155C3.5962 56.5607 5.49799 55.2619 5.49799 52.3178C5.49799 49.2871 7.05401 48.9408 9.21514 51.4519C10.0796 52.491 11.7221 53.1837 13.1916 53.1837C14.6612 53.1837 16.0443 53.6166 16.3037 54.0496C16.9952 55.1753 25.9855 55.1753 26.6771 54.0496C27.0229 53.5301 31.6045 53.1837 37.5692 53.1837C49.1529 53.1837 52.092 52.2312 54.3396 47.9883C56.0685 44.6113 55.982 42.1001 53.9073 38.7231C51.4869 34.74 48.202 34.1338 26.9364 34.1338H8.09135L6.70823 31.9691C5.41155 29.9775 5.41155 29.6312 6.70823 27.6396C8.52358 24.8687 12.4136 24.7821 16.0443 27.3798C19.2428 29.6312 25.3804 30.3239 30.2213 29.025C33.5063 28.1591 50.8818 18.1146 54.0802 15.2572C55.2905 14.3047 55.6363 12.5729 55.6363 8.15677C55.6363 4.86634 55.204 2.00886 54.5989 1.40273C53.9073 0.710008 48.8071 0.363647 37.4827 0.363647C22.2684 0.363647 21.1446 0.450238 17.5139 2.35522ZM27.9738 3.82726C29.8756 3.82726 31.4316 3.39431 31.4316 2.96135C31.4316 2.44181 29.8756 2.09545 27.9738 2.09545C26.072 2.09545 24.516 2.44181 24.516 2.96135C24.516 3.39431 26.072 3.82726 27.9738 3.82726ZM53.9073 13.7851L53.7345 8.15677L53.4751 2.5284L43.4475 2.26863C33.9385 2.09545 33.3334 2.18204 32.9011 3.82726C32.5554 5.29929 31.7774 5.55906 28.0602 5.55906C24.8617 5.55906 23.4786 5.2127 23.1328 4.26021C21.9226 1.14296 15.2663 4.43339 13.0187 9.28244C9.82026 15.9499 12.2407 23.3967 18.4648 26.5139C24.6888 29.7177 29.6162 28.3323 44.0526 19.6733L53.9073 13.7851ZM9.47447 23.743C10.5983 23.743 11.5492 23.3101 11.5492 22.8771C11.5492 22.3576 10.5983 22.0112 9.47447 22.0112C6.36244 22.0112 2.90463 25.3882 2.38596 29.025C1.95374 31.7093 2.29952 32.6618 4.46065 35.0863L7.05401 38.0304L28.3195 38.4634C40.6812 38.7231 49.8444 39.2427 50.3631 39.7622C52.1784 41.6672 52.2649 45.0442 50.6224 47.209C48.98 49.2006 48.2884 49.2871 38.0014 49.5469C32.0367 49.7201 27.1093 50.2396 27.1093 50.6726C27.1093 51.8848 47.0782 51.6251 49.5851 50.3262C53.8209 48.1615 54.8582 42.9661 51.8327 38.8963C50.7089 37.2511 49.3257 37.1645 29.2704 36.7316L7.91846 36.2986L5.84377 33.8741C4.71999 32.5752 3.76909 30.7568 3.76909 29.8909C3.76909 27.3798 7.14045 23.743 9.47447 23.743ZM14.5747 49.7201C13.8832 49.7201 12.4136 48.7676 11.3763 47.5553C9.30159 45.2174 4.89288 44.6113 3.07752 46.4297C1.86729 47.6419 1.6944 52.8373 2.81819 53.6166C3.25042 53.8764 3.76909 52.8373 3.94198 51.3653C4.11487 49.8067 4.89288 48.1615 5.67088 47.6419C6.96756 46.8626 7.65912 47.1224 9.38803 49.114C11.5492 51.3653 15.8714 52.4044 15.8714 50.586C15.8714 50.0664 15.2663 49.7201 14.5747 49.7201ZM21.5768 53.1837C25.4669 53.1837 25.4669 53.1837 25.2075 50.3262C24.9482 47.8151 24.6024 47.5553 21.9226 47.2956C18.2054 46.9492 17.6003 47.4687 17.6003 50.7592C17.6003 53.0971 17.7732 53.1837 21.5768 53.1837Z" fill="#9FDB3D"/>
</svg>
