<svg width="55" height="55" viewBox="0 0 55 55" fill="none" xmlns="http://www.w3.org/2000/svg">
<path d="M15.3658 2.42286C12.0863 4.35747 10.4045 6.96499 9.64766 10.9183C9.14312 13.4417 8.63857 14.1147 6.45221 14.7876C3.08857 15.7128 0.818115 19.9185 0.818115 24.9653C0.818115 26.9841 1.9113 32.9561 3.34084 38.3394C4.6863 43.6386 5.86357 49.0218 5.86357 50.2835C5.86357 51.5452 6.28403 52.9752 6.87266 53.564C8.30221 54.9939 47.1522 54.9939 48.5818 53.564C49.1704 52.9752 49.5908 51.377 49.5908 50.0312C49.5908 48.6013 50.7681 43.218 52.1136 38.1712C53.459 33.0402 54.6363 27.2364 54.6363 25.1335C54.6363 19.9185 52.3658 15.7128 49.0022 14.7035C46.7318 14.1147 46.2272 13.4417 45.8068 10.7501C44.4613 3.01165 36.7249 -1.36226 30.2499 2.00229C27.9795 3.17988 27.4749 3.17988 25.2045 2.00229C21.9249 0.320014 18.5613 0.404127 15.3658 2.42286ZM26.2136 5.11449L27.7272 7.04911L29.3249 4.94627C31.5113 2.17051 37.4818 2.00229 40.3408 4.5257C42.9477 6.79677 44.7136 11.2548 44.0408 13.7782C43.6204 15.6287 43.7886 15.881 45.8068 15.881C49.0863 15.881 51.0204 17.2269 52.0295 20.1708C53.3749 24.0401 53.2068 27.3205 51.1045 34.8907C50.0954 38.5076 48.9181 43.975 48.3295 47.0031L47.4045 52.4705H8.04993L7.12493 47.0031C6.5363 43.975 5.35903 38.5076 4.34993 34.8907C2.16357 27.0682 2.07948 23.6195 3.67721 19.6662C4.6863 17.2269 5.44312 16.6381 8.21812 16.2175C11.4136 15.7128 11.4977 15.6287 11.4136 12.4324C11.3295 8.89961 13.5999 5.19861 16.8795 3.43222C19.6545 1.91817 24.4477 2.84342 26.2136 5.11449Z" fill="#9FDB3D"/>
<path d="M17.2158 6.96499C13.4318 10.7501 13.4318 19.3297 17.2158 23.1148C19.7386 25.6382 21.4204 25.6382 23.9431 23.1148C27.7272 19.3297 27.7272 10.7501 23.9431 6.96499C22.8499 5.87152 21.3363 4.94627 20.5795 4.94627C19.8227 4.94627 18.309 5.87152 17.2158 6.96499ZM24.1954 11.0025C25.6249 14.7876 24.9522 19.4979 22.5977 21.8531C20.4954 23.956 18.2249 22.8625 16.8795 19.1615C15.6181 15.6287 15.7022 13.8623 17.2158 10.3295C18.2249 7.80613 18.8136 7.38556 20.7477 7.63791C22.5136 7.80613 23.2704 8.56316 24.1954 11.0025Z" fill="#9FDB3D"/>
<path d="M31.5113 6.965C29.1567 9.32018 28.1477 13.7782 28.9886 18.068C29.5772 21.3484 32.6886 25.1336 34.8749 25.1336C38.7431 25.1336 41.9386 18.068 40.7613 12.0118C40.1727 8.73139 37.0613 4.94627 34.8749 4.94627C34.1181 4.94627 32.6045 5.87152 31.5113 6.965ZM38.4908 11.0025C39.9204 14.7876 39.2477 19.4979 36.8931 21.8531C34.7908 23.956 32.5204 22.8625 31.1749 19.1615C29.9136 15.6287 29.9977 13.8623 31.5113 10.3295C32.5204 7.80614 33.109 7.38557 35.0431 7.63791C36.809 7.80614 37.5658 8.56316 38.4908 11.0025Z" fill="#9FDB3D"/>
<path d="M5.86357 20.0867C4.01357 21.9372 3.7613 23.956 5.10675 27.4046C6.45221 30.9374 9.22721 33.5449 11.834 33.5449C15.1136 33.5449 16.2068 31.6944 15.7022 27.0682C15.3658 23.956 14.6931 22.526 12.6749 20.7596C9.56357 17.9839 8.13402 17.8157 5.86357 20.0867ZM11.834 22.526C15.9545 26.7317 14.609 33.9655 10.1522 31.2739C9.39539 30.8533 8.13402 29.0869 7.20902 27.3205C5.94766 24.7971 5.86357 23.7036 6.62039 22.1055C7.79766 19.4979 8.80675 19.582 11.834 22.526Z" fill="#9FDB3D"/>
<path d="M42.7795 20.7596C40.7613 22.526 40.0886 23.956 39.7522 27.0682C39.2477 31.6944 40.3408 33.5449 43.6204 33.5449C49.5908 33.5449 53.7113 21.8531 48.7499 19.2456C46.3954 17.9839 45.6386 18.1521 42.7795 20.7596ZM48.834 22.1055C49.5908 23.7036 49.5068 24.7971 48.2454 27.3205C47.3204 29.0869 46.059 30.8533 45.3022 31.2739C40.8454 33.9655 39.4999 26.7317 43.6204 22.526C46.6477 19.5821 47.6568 19.4979 48.834 22.1055Z" fill="#9FDB3D"/>
<path d="M21.9249 29.3392C15.1136 34.3019 10.909 43.975 13.7681 48.2648C15.6181 51.0406 18.3931 51.6294 22.2613 50.0312C26.2136 48.3489 29.2408 48.3489 33.1931 50.0312C39.1636 52.4705 43.5363 49.1901 42.4431 42.8815C41.2659 35.9001 32.9408 26.8158 27.7272 26.8158C26.4658 26.8158 23.859 27.9934 21.9249 29.3392ZM32.6886 31.0215C36.5568 33.8814 39.0795 37.4983 40.3408 42.0404C42.0227 48.2648 39.3318 50.1994 32.4363 47.8442C27.7272 46.162 27.7272 46.162 23.0181 47.8442C18.0568 49.5265 15.7863 49.1901 14.7772 46.4984C14.1045 44.732 15.4499 39.7693 17.6363 36.3207C19.4863 33.2085 25.6249 28.4981 27.7272 28.4981C28.484 28.4981 30.7545 29.6757 32.6886 31.0215Z" fill="#9FDB3D"/>
</svg>
