<svg width="56" height="56" viewBox="0 0 56 56" fill="none" xmlns="http://www.w3.org/2000/svg">
<path d="M16.3421 2.29466C15.8239 4.11018 17.0329 8.95157 17.9828 8.95157C18.2419 8.95157 18.3282 6.96314 18.3282 4.6289C18.2419 0.13333 17.1193 -1.07702 16.3421 2.29466Z" fill="#9FDB3D"/>
<path d="M38.6214 6.35797C38.6214 8.69221 38.7078 10.6806 38.8805 10.6806C39.8304 10.6806 41.0394 5.7528 40.5212 4.02373C39.7441 0.652049 38.7078 1.8624 38.6214 6.35797Z" fill="#9FDB3D"/>
<path d="M29.2088 4.36954C28.8634 5.57989 27.9999 6.35797 26.9636 6.35797C24.114 6.35797 21.9551 8.00058 21.9551 10.2484C21.9551 11.6316 21.437 12.4097 20.6598 12.4097C19.969 12.4097 18.5873 13.1878 17.551 14.2252C16.1694 15.6085 15.824 16.6459 16.3421 18.9802C16.6875 21.1415 16.5148 21.9196 15.6512 21.9196C13.8378 21.9196 11.5926 24.859 11.5926 27.1932C11.5926 29.2681 7.70666 33.1585 5.63416 33.1585C5.11603 33.1585 4.33885 33.9366 3.82072 34.8876C3.3026 35.8386 2.3527 36.6166 1.66187 36.6166C-0.410632 36.6166 0.107493 40.5935 2.43906 42.409C3.73437 43.4465 4.68426 45.4349 5.11603 47.6827C5.3751 49.6711 6.4977 52.2647 7.4476 53.475L9.08833 55.6364H46.9115L48.5522 53.475C49.5021 52.2647 50.6247 49.6711 50.8837 47.6827C51.3155 45.4349 52.2654 43.4465 53.5607 42.409C55.8923 40.5935 56.4104 36.6166 54.3379 36.6166C53.6471 36.6166 52.6972 35.8386 52.1791 34.8876C51.6609 33.9366 50.8837 33.1585 50.3656 33.1585C48.2068 33.1585 44.4072 29.2681 44.4072 27.1068C44.4072 24.7725 42.0756 21.9196 40.1758 21.9196C39.485 21.9196 39.3123 21.055 39.6577 18.9802C40.1758 16.6459 39.8304 15.6085 38.4487 14.2252C37.4125 13.1878 36.0308 12.4097 35.34 12.4097C34.4765 12.4097 34.0447 11.5452 34.0447 9.90256C34.0447 8.3464 33.1811 6.27152 31.8858 4.88826L29.727 2.46757L29.2088 4.36954ZM32.0585 11.0265C31.7131 11.8045 30.6769 12.4097 29.727 12.4097C28.7771 12.4097 27.9999 12.7555 27.9999 13.2742C27.9999 13.7065 29.727 14.1388 31.7995 14.1388C38.276 14.1388 40.4349 18.0292 35.5991 21.055C32.5767 22.8706 33.0948 23.3893 38.276 23.8215C41.8166 24.1674 43.5436 26.3287 42.162 28.5765C41.2984 29.9597 39.6577 30.1326 27.9999 30.1326C16.3421 30.1326 14.7013 29.9597 13.8378 28.5765C13.147 27.539 13.147 26.6745 13.8378 25.5506C14.615 24.3403 16.3421 23.9945 23.1641 23.8215C31.9722 23.5622 34.9082 21.9196 26.4455 21.9196C21.3506 21.9196 17.6374 20.277 17.6374 18.0292C17.6374 15.9543 20.228 14.1388 23.3368 14.1388C26.3592 14.1388 27.3091 13.0149 24.9775 12.0639C22.5596 11.1994 23.5958 9.03802 26.7046 8.43285C28.3453 8.17349 29.986 7.48186 30.3314 6.96314C31.1086 5.66634 32.663 9.38384 32.0585 11.0265ZM13.5787 32.8991C13.147 34.023 13.3197 34.1959 14.7013 33.5908C17.551 32.294 29.6406 32.0346 31.1086 33.245C31.9722 34.023 32.663 34.023 33.0084 33.4179C33.3538 32.9856 36.0308 32.294 38.9669 32.0346C43.4573 31.6888 44.6662 31.8617 46.2206 33.245C47.2569 34.1095 48.6385 34.8876 49.3294 34.8876C49.9338 34.8876 50.452 35.2334 50.452 35.7521C50.452 36.2708 42.421 36.6166 27.9999 36.6166C13.5787 36.6166 5.54781 36.2708 5.54781 35.7521C5.54781 35.2334 6.06593 34.8876 6.67041 34.8876C7.36124 34.8876 8.74291 34.1095 9.86551 33.1585C12.2834 30.9972 14.3559 30.9107 13.5787 32.8991ZM53.9061 39.0373C53.9061 41.5445 51.3155 41.8038 27.9999 41.8038C4.68427 41.8038 2.09364 41.5445 2.09364 39.0373C2.09364 38.6915 13.7515 38.3457 27.9999 38.3457C42.2483 38.3457 53.9061 38.6915 53.9061 39.0373ZM49.5884 44.8297C49.5884 45.9536 47.6886 46.1265 37.4988 46.1265C29.986 46.1265 25.4093 46.4723 25.4093 46.991C25.4093 47.5098 29.8997 47.8556 37.0671 47.8556C49.5021 47.8556 50.1066 48.1149 47.3432 52.0053C46.0479 53.9073 45.6161 53.9073 27.9999 53.9073C10.3836 53.9073 9.95187 53.9073 8.65656 52.0053C5.97958 48.2878 6.67041 47.8556 15.5649 47.8556C20.8325 47.8556 23.5958 47.5098 23.2504 46.991C22.9913 46.4723 19.1054 46.1265 14.5286 46.1265C7.87937 46.1265 6.41135 45.8671 6.41135 44.8297C6.41135 43.7058 9.34739 43.5329 27.9999 43.5329C46.6524 43.5329 49.5884 43.7058 49.5884 44.8297Z" fill="#9FDB3D"/>
<path d="M12.0244 7.30896C11.2472 8.43285 12.2834 14.1388 13.2333 14.1388C13.5787 14.1388 13.8378 12.4097 13.8378 10.2484C13.7515 6.44442 13.147 5.40698 12.0244 7.30896Z" fill="#9FDB3D"/>
<path d="M43.0255 11.9774C42.9392 16.1272 44.0618 17.1646 44.9253 13.793C45.5298 11.1994 45.098 8.77866 43.9754 8.3464C43.4573 8.17349 43.1119 9.8161 43.0255 11.9774Z" fill="#9FDB3D"/>
</svg>
