<svg width="60" height="58" viewBox="0 0 60 58" fill="none" xmlns="http://www.w3.org/2000/svg">
<path d="M17.4113 10.1365C20.6953 13.3859 21.9724 12.9346 19.6006 9.41437C18.7796 8.15072 17.3201 7.15785 16.2254 7.15785C14.6746 7.15785 14.857 7.51889 17.4113 10.1365Z" fill="#9FDB3D"/>
<path d="M40.3995 9.41437C38.0277 12.9346 39.3048 13.3859 42.5889 10.1365C45.1431 7.51889 45.3256 7.15785 43.7748 7.15785C42.6801 7.15785 41.2205 8.15072 40.3995 9.41437Z" fill="#9FDB3D"/>
<path d="M19.4182 20.697C17.2288 21.5093 15.678 23.4048 17.1376 23.4048C18.9621 23.4048 22.7022 21.5996 22.7022 20.697C22.7022 19.6139 22.0637 19.6139 19.4182 20.697Z" fill="#9FDB3D"/>
<path d="M37.2979 20.697C37.2979 21.5996 41.0381 23.4048 43.045 23.4048C44.5958 23.4048 41.7679 20.9678 39.3961 20.2457C38.1189 19.8846 37.2979 20.0652 37.2979 20.697Z" fill="#9FDB3D"/>
<path d="M19.0533 25.6614C18.1411 26.7445 18.1411 27.5568 18.8709 29.2718C20.148 32.0699 23.9794 32.3407 25.4389 29.7231C27.6283 25.7516 21.9724 22.2314 19.0533 25.6614ZM23.8881 26.6542C24.7091 27.5568 23.5232 29.7231 22.2461 29.7231C20.6953 29.7231 19.6919 28.1887 20.4217 27.0153C21.0602 26.0224 22.9759 25.8419 23.8881 26.6542Z" fill="#9FDB3D"/>
<path d="M34.5612 26.1127C33.1929 28.64 34.9261 31.5283 37.8453 31.5283C40.6732 31.5283 42.7713 27.8276 40.9469 25.6614C39.3048 23.7659 35.7471 23.9464 34.5612 26.1127ZM39.8522 27.6471C40.3083 29.2718 37.2979 30.2647 36.3857 28.7302C35.9296 28.0984 35.8384 27.1958 36.112 26.7445C36.7506 25.6614 39.3048 26.2932 39.8522 27.6471Z" fill="#9FDB3D"/>
<path d="M25.4389 45.0675C25.4389 45.5188 25.895 45.9701 26.3512 45.9701C26.8985 45.9701 27.2634 45.5188 27.2634 45.0675C27.2634 44.5259 26.8985 44.1649 26.3512 44.1649C25.895 44.1649 25.4389 44.5259 25.4389 45.0675Z" fill="#9FDB3D"/>
<path d="M32.7368 45.0675C32.7368 45.5188 33.1929 45.9701 33.649 45.9701C34.1964 45.9701 34.5612 45.5188 34.5612 45.0675C34.5612 44.5259 34.1964 44.1649 33.649 44.1649C33.1929 44.1649 32.7368 44.5259 32.7368 45.0675Z" fill="#9FDB3D"/>
<path fill-rule="evenodd" clip-rule="evenodd" d="M8.28897 2.37401C6.73818 5.44288 6.28206 10.0462 7.19429 14.1079C7.92408 17.3573 7.83286 19.6139 6.64696 24.3977C5.18738 30.1744 5.00494 30.5355 2.99803 30.0841C0.535003 29.4523 0.44378 29.6328 1.7209 32.9725C2.45069 34.7777 2.45069 35.5901 1.62968 36.0414C-1.01579 37.7563 5.55228 43.8038 13.1238 46.6019C17.2288 48.1364 17.685 48.5877 17.9586 51.3858C18.1411 53.1007 18.6884 54.9962 19.1445 55.5378C21.4251 58.3358 38.5751 58.3358 40.8556 55.5378C41.3118 54.9962 41.8591 53.1007 42.0415 51.3858C42.3152 48.5877 42.7713 48.1364 46.8764 46.6019C54.4479 43.8038 61.016 37.7563 58.3705 36.0414C57.5495 35.5901 57.5495 34.7777 58.2793 32.9725C59.5564 29.6328 59.4652 29.4523 57.0021 30.0841C54.9952 30.5355 54.8128 30.1744 53.3532 24.488C52.2585 19.7944 52.0761 17.3573 52.7147 13.8372C53.5357 9.59489 52.9883 4.17923 51.5288 1.83244C50.5253 0.298005 48.9745 0.568788 42.5889 3.45714C34.3788 7.06758 25.6214 7.06758 17.4113 3.45714C10.6608 0.388266 9.38365 0.298005 8.28897 2.37401ZM23.0671 9.41437C22.7022 8.60202 20.6041 7.06758 18.2323 5.89419C11.8467 2.73505 10.2047 2.37401 9.5661 4.08897C8.3802 7.24811 9.01876 14.9203 10.8432 18.26C12.6677 21.5093 12.6677 21.5996 10.9344 21.5996C9.10998 21.5996 8.65386 22.412 7.65041 28.2789C7.28552 30.6257 6.55573 31.8894 5.27861 32.1602C3.91026 32.5212 3.72781 32.8822 4.54882 33.8751C5.36983 34.868 5.27861 35.4998 4.4576 36.4927C2.9068 38.2979 5.00494 40.735 10.2959 43.2623C15.0395 45.5188 16.3166 45.5188 16.3166 43.3525C16.3166 41.3668 19.5094 37.1245 20.3304 37.9369C20.6953 38.2979 20.2392 39.7421 19.327 41.3668C17.8674 43.8941 17.7762 44.3454 19.0533 46.6019C20.6041 49.4 25.4389 50.4831 27.8107 48.5877C29.4527 47.2337 29.4527 42.9012 27.7195 41.457C25.8038 39.8323 25.9863 37.2148 28.1756 36.6732C32.6456 35.4998 35.4735 38.8395 32.2807 41.457C30.5474 42.9012 30.5474 47.2337 32.1894 48.5877C34.5612 50.4831 39.3961 49.4 40.9469 46.6019C42.224 44.3454 42.1328 43.8941 40.6732 41.3668C39.761 39.7421 39.3048 38.2979 39.6697 37.9369C40.4907 37.1245 43.6836 41.3668 43.6836 43.3525C43.6836 45.5188 44.9607 45.5188 49.7043 43.2623C54.9952 40.735 57.0934 38.2979 55.5426 36.4927C54.7216 35.4998 54.6303 34.868 55.4514 33.8751C56.2724 32.8822 56.0899 32.5212 54.7216 32.1602C53.4444 31.8894 52.7147 30.6257 52.3498 28.2789C51.3463 22.412 50.8902 21.5996 49.0657 21.5996C47.3325 21.5996 47.3325 21.5093 49.157 18.26C50.3429 16.0034 50.9814 13.1151 50.9814 9.86567C50.9814 2.37401 50.4341 2.01296 43.7748 4.90132C40.6732 6.34549 37.7541 8.24098 37.2067 9.14359C36.6594 10.0462 35.9296 10.5878 35.3823 10.317C34.9261 9.95594 34.7437 9.32411 35.0174 8.8728C35.3823 8.4215 33.1929 8.06045 30.0001 8.06045C26.8073 8.06045 24.6179 8.4215 24.9828 8.8728C25.2565 9.32411 25.074 9.95594 24.5267 10.317C23.9794 10.5878 23.3408 10.2267 23.0671 9.41437ZM28.9054 39.8323C29.7264 40.6447 30.2738 40.6447 31.0948 39.8323C31.9158 39.02 31.7333 38.7492 30.0001 38.7492C28.2668 38.7492 28.0844 39.02 28.9054 39.8323ZM30.9123 51.7468C30.9123 52.5591 30.5474 53.191 30.0913 53.191C29.6352 53.191 29.0879 52.5591 28.9054 51.7468C28.5405 49.7611 27.2634 51.2052 27.2634 53.7325C27.2634 55.8988 29.1791 57.0722 31.3684 56.2598C32.9192 55.628 33.1929 51.8371 31.8246 50.9344C31.3684 50.6637 30.9123 51.0247 30.9123 51.7468ZM25.4389 53.8228C25.4389 53.1007 24.8004 52.1981 23.9794 51.9273C21.3339 50.9345 19.7831 51.2955 20.148 52.9202C20.5129 54.9962 25.4389 55.7183 25.4389 53.8228ZM34.5612 53.7325C34.5612 55.7183 39.4873 54.9962 39.8522 52.9202C40.0346 51.9273 39.5785 51.3857 38.4838 51.476C35.8384 51.5663 34.5612 52.3786 34.5612 53.7325Z" fill="#9FDB3D"/>
</svg>
