<svg width="21" height="20" viewBox="0 0 21 20" fill="none" xmlns="http://www.w3.org/2000/svg">
<rect x="0.333252" width="20" height="20" rx="4" fill="#7871DE"/>
<path d="M10.8245 13.5C7.06623 13.5 4.92257 10.8724 4.83325 6.5H6.71583C6.77766 9.70921 8.16554 11.0686 9.26486 11.3488V6.5H11.0375V9.26777C12.1231 9.14865 13.2636 7.88739 13.6484 6.5H15.421C15.276 7.21954 14.987 7.90083 14.5721 8.50125C14.1571 9.10167 13.6251 9.60832 13.0094 9.98949C13.6967 10.3378 14.3037 10.8307 14.7905 11.4359C15.2773 12.041 15.6327 12.7445 15.8333 13.5H13.882C13.7019 12.8438 13.3359 12.2564 12.8299 11.8114C12.3239 11.3664 11.7004 11.0836 11.0375 10.9985V13.5H10.8245Z" fill="white"/>
</svg>
